<svg xmlns="http://www.w3.org/2000/svg" xmlns:xlink="http://www.w3.org/1999/xlink" xmlns:lucid="lucid" width="2360" height="635"><g transform="translate(-60 -180)" lucid:page-tab-id="HWEp-vi-RSFO"><path d="M0 0h2431.53v2019.87H0z" fill="#fff"/><path d="M80 200h340v173H80z" stroke="#333" stroke-width="2" fill="#fff"/><path d="M80 237.6h340M80 316.3h340" stroke="#333" stroke-width="2" fill="none"/><use xlink:href="#a" transform="matrix(1,0,0,1,88,208) translate(135.075 14.6)"/><use xlink:href="#b" transform="matrix(1,0,0,1,92,245.6) translate(0 24.299999999999997)"/><use xlink:href="#c" transform="matrix(1,0,0,1,92,245.6) translate(10.95 24.299999999999997)"/><use xlink:href="#b" transform="matrix(1,0,0,1,92,245.6) translate(0 45.9)"/><use xlink:href="#d" transform="matrix(1,0,0,1,92,245.6) translate(10.95 45.9)"/><path d="M700 200h340v195H700z" stroke="#333" stroke-width="2" fill="#fff"/><path d="M700 237.6h340M700 337.9h340" stroke="#333" stroke-width="2" fill="none"/><use xlink:href="#e" transform="matrix(1,0,0,1,708,208) translate(130.525 14.6)"/><use xlink:href="#b" transform="matrix(1,0,0,1,712,245.6) translate(0 24.5)"/><use xlink:href="#c" transform="matrix(1,0,0,1,712,245.6) translate(10.95 24.5)"/><use xlink:href="#b" transform="matrix(1,0,0,1,712,245.6) translate(0 46.1)"/><use xlink:href="#f" transform="matrix(1,0,0,1,712,245.6) translate(10.95 46.1)"/><use xlink:href="#b" transform="matrix(1,0,0,1,712,245.6) translate(0 67.7)"/><use xlink:href="#g" transform="matrix(1,0,0,1,712,245.6) translate(10.95 67.7)"/><path d="M1420 200h340v238h-340z" stroke="#333" stroke-width="2" fill="#fff"/><path d="M1420 237.6h340m-340 143.5h340" stroke="#333" stroke-width="2" fill="none"/><use xlink:href="#h" transform="matrix(1,0,0,1,1428,208) translate(114.57499999999999 14.6)"/><use xlink:href="#b" transform="matrix(1,0,0,1,1432,245.6) translate(0 24.39999999999999)"/><use xlink:href="#i" transform="matrix(1,0,0,1,1432,245.6) translate(10.95 24.39999999999999)"/><use xlink:href="#b" transform="matrix(1,0,0,1,1432,245.6) translate(0 45.99999999999999)"/><use xlink:href="#j" transform="matrix(1,0,0,1,1432,245.6) translate(10.95 45.99999999999999)"/><use xlink:href="#b" transform="matrix(1,0,0,1,1432,245.6) translate(0 67.6)"/><use xlink:href="#k" transform="matrix(1,0,0,1,1432,245.6) translate(10.95 67.6)"/><use xlink:href="#b" transform="matrix(1,0,0,1,1432,245.6) translate(0 89.20000000000002)"/><use xlink:href="#l" transform="matrix(1,0,0,1,1432,245.6) translate(10.95 89.20000000000002)"/><use xlink:href="#b" transform="matrix(1,0,0,1,1432,245.6) translate(0 110.80000000000001)"/><use xlink:href="#m" transform="matrix(1,0,0,1,1432,245.6) translate(10.95 110.80000000000001)"/><path d="M480 600h340v152H480z" stroke="#333" stroke-width="2" fill="#fff"/><path d="M480 637.6h340m-340 57.1h340" stroke="#333" stroke-width="2" fill="none"/><use xlink:href="#n" transform="matrix(1,0,0,1,488,608) translate(128.575 14.6)"/><path d="M900 600h340v152H900z" stroke="#333" stroke-width="2" fill="#fff"/><path d="M900 637.6h340m-340 57.1h340" stroke="#333" stroke-width="2" fill="none"/><use xlink:href="#o" transform="matrix(1,0,0,1,908,608) translate(134.075 14.6)"/><path d="M650 598.5v-89c0-6.63 5.37-12 12-12h196c6.63 0 12-5.37 12-12v-73.12" stroke="#333" fill="none"/><path d="M650.5 599h-1v-.5h1z" fill="#333"/><path d="M870 397.62l4.64 14.26h-9.28z" stroke="#333" fill="#333"/><path d="M1070 598.5v-89c0-6.63-5.37-12-12-12H882c-6.63 0-12-5.37-12-12v-73.12" stroke="#333" fill="none"/><path d="M1070.5 599h-1v-.5h1z" fill="#333"/><path d="M870 397.62l4.64 14.26h-9.28z" stroke="#333" fill="#333"/><path d="M1420 600h340v195h-340z" stroke="#333" stroke-width="2" fill="#fff"/><path d="M1420 637.6h340m-340 100.3h340" stroke="#333" stroke-width="2" fill="none"/><use xlink:href="#p" transform="matrix(1,0,0,1,1428,608) translate(106.675 14.6)"/><use xlink:href="#b" transform="matrix(1,0,0,1,1432,645.6) translate(0 24.5)"/><use xlink:href="#l" transform="matrix(1,0,0,1,1432,645.6) translate(10.95 24.5)"/><use xlink:href="#b" transform="matrix(1,0,0,1,1432,645.6) translate(0 46.1)"/><use xlink:href="#i" transform="matrix(1,0,0,1,1432,645.6) translate(10.95 46.1)"/><use xlink:href="#b" transform="matrix(1,0,0,1,1432,645.6) translate(0 67.7)"/><use xlink:href="#q" transform="matrix(1,0,0,1,1432,645.6) translate(10.95 67.7)"/><path d="M1590 439.5v159" stroke="#333" fill="none"/><path d="M1590.5 439.5h-1v-.5h1zM1590.5 599h-1v-.5h1z" fill="#333"/><use xlink:href="#r" transform="matrix(1,0,0,1,1558.6666666666667,440.23577235772365) translate(0 12.444444444444446)"/><use xlink:href="#s" transform="matrix(1,0,0,1,1573.358024691358,580.6747967479674) translate(0 12.444444444444446)"/><path d="M421.5 286.5h277" stroke="#333" fill="none"/><path d="M421.5 287h-.5v-1h.5zM699 287h-.5v-1h.5z" fill="#333"/><use xlink:href="#r" transform="matrix(1,0,0,1,427.69715447154465,290.50000000000006) translate(0 12.444444444444446)"/><use xlink:href="#s" transform="matrix(1,0,0,1,682.5306383619393,290.50000000000006) translate(0 12.444444444444446)"/><path d="M2060 200h340v195h-340z" stroke="#333" stroke-width="2" fill="#fff"/><path d="M2060 237.6h340m-340 100.3h340" stroke="#333" stroke-width="2" fill="none"/><g><use xlink:href="#t" transform="matrix(1,0,0,1,2068,208) translate(112.125 14.6)"/></g><g><use xlink:href="#b" transform="matrix(1,0,0,1,2072,245.6) translate(0 24.5)"/><use xlink:href="#i" transform="matrix(1,0,0,1,2072,245.6) translate(10.95 24.5)"/><use xlink:href="#b" transform="matrix(1,0,0,1,2072,245.6) translate(0 46.1)"/><use xlink:href="#f" transform="matrix(1,0,0,1,2072,245.6) translate(10.95 46.1)"/><use xlink:href="#b" transform="matrix(1,0,0,1,2072,245.6) translate(0 67.7)"/><use xlink:href="#u" transform="matrix(1,0,0,1,2072,245.6) translate(10.95 67.7)"/></g><path d="M1820 600h340v195h-340z" stroke="#333" stroke-width="2" fill="#fff"/><path d="M1820 637.6h340m-340 100.3h340" stroke="#333" stroke-width="2" fill="none"/><g><use xlink:href="#v" transform="matrix(1,0,0,1,1828,608) translate(120.375 14.6)"/></g><g><use xlink:href="#b" transform="matrix(1,0,0,1,1832,645.6) translate(0 24.5)"/><use xlink:href="#i" transform="matrix(1,0,0,1,1832,645.6) translate(10.95 24.5)"/><use xlink:href="#b" transform="matrix(1,0,0,1,1832,645.6) translate(0 46.1)"/><use xlink:href="#f" transform="matrix(1,0,0,1,1832,645.6) translate(10.95 46.1)"/><use xlink:href="#b" transform="matrix(1,0,0,1,1832,645.6) translate(0 67.7)"/><use xlink:href="#w" transform="matrix(1,0,0,1,1832,645.6) translate(10.95 67.7)"/></g><path d="M1640 439.5V528c0 6.63 5.37 12 12 12h326c6.63 0 12 5.37 12 12v46.5" stroke="#333" fill="none"/><path d="M1640.5 439.5h-1v-.5h1zM1990.5 599h-1v-.5h1z" fill="#333"/><g><use xlink:href="#r" transform="matrix(1,0,0,1,1608.6666666666667,462.85979268576) translate(0 12.444444444444446)"/></g><g><use xlink:href="#s" transform="matrix(1,0,0,1,1973.358024691358,567.6427879457361) translate(0 12.444444444444446)"/></g><path d="M1761.5 319h297" stroke="#333" fill="none"/><path d="M1761.5 319.5h-.5v-1h.5zM2059 319.5h-.5v-1h.5z" fill="#333"/><g><use xlink:href="#r" transform="matrix(1,0,0,1,1769.0182926829268,323.00000000000006) translate(0 12.444444444444446)"/></g><g><use xlink:href="#s" transform="matrix(1,0,0,1,2041.6566546221018,323.00000000000006) translate(0 12.444444444444446)"/></g><path d="M1041.5 300h377" stroke="#333" fill="none"/><path d="M1041.5 300.5h-.5v-1h.5zM1419 300.5h-.5v-1h.5z" fill="#333"/><g><use xlink:href="#r" transform="matrix(1,0,0,1,1054.3028455284552,304) translate(0 12.444444444444446)"/></g><g><use xlink:href="#s" transform="matrix(1,0,0,1,1398.1607196627522,304) translate(0 12.444444444444446)"/></g><defs><path fill="#333" d="M67-125c0 54 23 88 75 88 28 0 53-7 68-21v-34h-60v-39h108v91C232-14 192 4 140 4 58 4 20-42 15-125 8-236 126-280 215-234c19 10 29 26 37 47l-47 15c-11-23-29-39-63-39-53 1-75 33-75 86" id="x"/><path fill="#333" d="M135-150c-39-12-60 13-60 57V0H25l-1-190h47c2 13-1 29 3 40 6-28 27-53 61-41v41" id="y"/><path fill="#333" d="M85 4C-2 5 27-109 22-190h50c7 57-23 150 33 157 60-5 35-97 40-157h50l1 190h-47c-2-12 1-28-3-38-12 25-28 42-61 42" id="z"/><path fill="#333" d="M135-194c53 0 70 44 70 98 0 56-19 98-73 100-31 1-45-17-59-34 3 33 2 69 2 105H25l-1-265h48c2 10 0 23 3 31 11-24 29-35 60-35zM114-30c33 0 39-31 40-66 0-38-9-64-40-64-56 0-55 130 0 130" id="A"/><path fill="#333" d="M110-194c64 0 96 36 96 99 0 64-35 99-97 99-61 0-95-36-95-99 0-62 34-99 96-99zm-1 164c35 0 45-28 45-65 0-40-10-65-43-65-34 0-45 26-45 65 0 36 10 65 43 65" id="B"/><g id="a"><use transform="matrix(0.05,0,0,0.05,0,0)" xlink:href="#x"/><use transform="matrix(0.05,0,0,0.05,14,0)" xlink:href="#y"/><use transform="matrix(0.05,0,0,0.05,21,0)" xlink:href="#z"/><use transform="matrix(0.05,0,0,0.05,31.950000000000003,0)" xlink:href="#A"/><use transform="matrix(0.05,0,0,0.05,42.900000000000006,0)" xlink:href="#B"/></g><path fill="#333" d="M16-82v-28h88v28H16" id="C"/><use transform="matrix(0.05,0,0,0.05,0,0)" xlink:href="#C" id="b"/><path fill="#333" d="M117-194c89-4 53 116 60 194h-32v-121c0-31-8-49-39-48C34-167 62-67 57 0H25l-1-190h30c1 10-1 24 2 32 11-22 29-35 61-36" id="D"/><path fill="#333" d="M100-194c62-1 85 37 85 99 1 63-27 99-86 99S16-35 15-95c0-66 28-99 85-99zM99-20c44 1 53-31 53-75 0-43-8-75-51-75s-53 32-53 75 10 74 51 75" id="E"/><path fill="#333" d="M210-169c-67 3-38 105-44 169h-31v-121c0-29-5-50-35-48C34-165 62-65 56 0H25l-1-190h30c1 10-1 24 2 32 10-44 99-50 107 0 11-21 27-35 58-36 85-2 47 119 55 194h-31v-121c0-29-5-49-35-48" id="F"/><path fill="#333" d="M100-194c63 0 86 42 84 106H49c0 40 14 67 53 68 26 1 43-12 49-29l28 8c-11 28-37 45-77 45C44 4 14-33 15-96c1-61 26-98 85-98zm52 81c6-60-76-77-97-28-3 7-6 17-6 28h103" id="G"/><path fill="#333" d="M33-154v-36h34v36H33zM33 0v-36h34V0H33" id="H"/><path fill="#333" d="M185-189c-5-48-123-54-124 2 14 75 158 14 163 119 3 78-121 87-175 55-17-10-28-26-33-46l33-7c5 56 141 63 141-1 0-78-155-14-162-118-5-82 145-84 179-34 5 7 8 16 11 25" id="I"/><path fill="#333" d="M59-47c-2 24 18 29 38 22v24C64 9 27 4 27-40v-127H5v-23h24l9-43h21v43h35v23H59v120" id="J"/><path fill="#333" d="M114-163C36-179 61-72 57 0H25l-1-190h30c1 12-1 29 2 39 6-27 23-49 58-41v29" id="K"/><path fill="#333" d="M24-231v-30h32v30H24zM24 0v-190h32V0H24" id="L"/><path fill="#333" d="M177-190C167-65 218 103 67 71c-23-6-38-20-44-43l32-5c15 47 100 32 89-28v-30C133-14 115 1 83 1 29 1 15-40 15-95c0-56 16-97 71-98 29-1 48 16 59 35 1-10 0-23 2-32h30zM94-22c36 0 50-32 50-73 0-42-14-75-50-75-39 0-46 34-46 75s6 73 46 73" id="M"/><g id="c"><use transform="matrix(0.05,0,0,0.05,0,0)" xlink:href="#D"/><use transform="matrix(0.05,0,0,0.05,10,0)" xlink:href="#E"/><use transform="matrix(0.05,0,0,0.05,20,0)" xlink:href="#F"/><use transform="matrix(0.05,0,0,0.05,34.95,0)" xlink:href="#G"/><use transform="matrix(0.05,0,0,0.05,44.95,0)" xlink:href="#H"/><use transform="matrix(0.05,0,0,0.05,49.95,0)" xlink:href="#I"/><use transform="matrix(0.05,0,0,0.05,61.95,0)" xlink:href="#J"/><use transform="matrix(0.05,0,0,0.05,66.95,0)" xlink:href="#K"/><use transform="matrix(0.05,0,0,0.05,72.9,0)" xlink:href="#L"/><use transform="matrix(0.05,0,0,0.05,76.85000000000001,0)" xlink:href="#D"/><use transform="matrix(0.05,0,0,0.05,86.85000000000001,0)" xlink:href="#M"/></g><path fill="#333" d="M141-36C126-15 110 5 73 4 37 3 15-17 15-53c-1-64 63-63 125-63 3-35-9-54-41-54-24 1-41 7-42 31l-33-3c5-37 33-52 76-52 45 0 72 20 72 64v82c-1 20 7 32 28 27v20c-31 9-61-2-59-35zM48-53c0 20 12 33 32 33 41-3 63-29 60-74-43 2-92-5-92 41" id="N"/><path fill="#333" d="M24 0v-261h32V0H24" id="O"/><path fill="#333" d="M30 0v-248h33v221h125V0H30" id="P"/><path fill="#333" d="M85-194c31 0 48 13 60 33l-1-100h32l1 261h-30c-2-10 0-23-3-31C134-8 116 4 85 4 32 4 16-35 15-94c0-66 23-100 70-100zm9 24c-40 0-46 34-46 75 0 40 6 74 45 74 42 0 51-32 51-76 0-42-9-74-50-73" id="Q"/><g id="d"><use transform="matrix(0.05,0,0,0.05,0,0)" xlink:href="#G"/><use transform="matrix(0.05,0,0,0.05,10,0)" xlink:href="#F"/><use transform="matrix(0.05,0,0,0.05,24.950000000000003,0)" xlink:href="#N"/><use transform="matrix(0.05,0,0,0.05,34.95,0)" xlink:href="#L"/><use transform="matrix(0.05,0,0,0.05,38.900000000000006,0)" xlink:href="#O"/><use transform="matrix(0.05,0,0,0.05,42.85000000000001,0)" xlink:href="#P"/><use transform="matrix(0.05,0,0,0.05,52.85,0)" xlink:href="#L"/><use transform="matrix(0.05,0,0,0.05,56.80000000000001,0)" xlink:href="#Q"/><use transform="matrix(0.05,0,0,0.05,66.80000000000001,0)" xlink:href="#G"/><use transform="matrix(0.05,0,0,0.05,76.80000000000001,0)" xlink:href="#K"/><use transform="matrix(0.05,0,0,0.05,82.75000000000001,0)" xlink:href="#H"/><use transform="matrix(0.05,0,0,0.05,87.75000000000001,0)" xlink:href="#I"/><use transform="matrix(0.05,0,0,0.05,99.75000000000001,0)" xlink:href="#J"/><use transform="matrix(0.05,0,0,0.05,104.75,0)" xlink:href="#K"/><use transform="matrix(0.05,0,0,0.05,110.7,0)" xlink:href="#L"/><use transform="matrix(0.05,0,0,0.05,114.65000000000003,0)" xlink:href="#D"/><use transform="matrix(0.05,0,0,0.05,124.65000000000003,0)" xlink:href="#M"/></g><path fill="#333" d="M24-248c93 1 206-16 204 79-1 75-69 88-152 82V0H24v-248zm52 121c47 0 100 7 100-41 0-47-54-39-100-39v80" id="R"/><path fill="#333" d="M185-48c-13 30-37 53-82 52C43 2 14-33 14-96s30-98 90-98c62 0 83 45 84 108H66c0 31 8 55 39 56 18 0 30-7 34-22zm-45-69c5-46-57-63-70-21-2 6-4 13-4 21h74" id="S"/><path fill="#333" d="M137-138c1-29-70-34-71-4 15 46 118 7 119 86 1 83-164 76-172 9l43-7c4 19 20 25 44 25 33 8 57-30 24-41C81-84 22-81 20-136c-2-80 154-74 161-7" id="T"/><path fill="#333" d="M133-34C117-15 103 5 69 4 32 3 11-16 11-54c-1-60 55-63 116-61 1-26-3-47-28-47-18 1-26 9-28 27l-52-2c7-38 36-58 82-57s74 22 75 68l1 82c-1 14 12 18 25 15v27c-30 8-71 5-69-32zm-48 3c29 0 43-24 42-57-32 0-66-3-65 30 0 17 8 27 23 27" id="U"/><g id="e"><use transform="matrix(0.05,0,0,0.05,0,0)" xlink:href="#R"/><use transform="matrix(0.05,0,0,0.05,12,0)" xlink:href="#S"/><use transform="matrix(0.05,0,0,0.05,22,0)" xlink:href="#T"/><use transform="matrix(0.05,0,0,0.05,32,0)" xlink:href="#T"/><use transform="matrix(0.05,0,0,0.05,42,0)" xlink:href="#B"/><use transform="matrix(0.05,0,0,0.05,52.95,0)" xlink:href="#U"/></g><g id="f"><use transform="matrix(0.05,0,0,0.05,0,0)" xlink:href="#G"/><use transform="matrix(0.05,0,0,0.05,10,0)" xlink:href="#F"/><use transform="matrix(0.05,0,0,0.05,24.950000000000003,0)" xlink:href="#N"/><use transform="matrix(0.05,0,0,0.05,34.95,0)" xlink:href="#L"/><use transform="matrix(0.05,0,0,0.05,38.900000000000006,0)" xlink:href="#O"/><use transform="matrix(0.05,0,0,0.05,42.85000000000001,0)" xlink:href="#H"/><use transform="matrix(0.05,0,0,0.05,47.85000000000001,0)" xlink:href="#I"/><use transform="matrix(0.05,0,0,0.05,59.85,0)" xlink:href="#J"/><use transform="matrix(0.05,0,0,0.05,64.85000000000001,0)" xlink:href="#K"/><use transform="matrix(0.05,0,0,0.05,70.80000000000001,0)" xlink:href="#L"/><use transform="matrix(0.05,0,0,0.05,74.75000000000001,0)" xlink:href="#D"/><use transform="matrix(0.05,0,0,0.05,84.75000000000001,0)" xlink:href="#M"/></g><path fill="#333" d="M101-234c-31-9-42 10-38 44h38v23H63V0H32v-167H5v-23h27c-7-52 17-82 69-68v24" id="V"/><g id="g"><use transform="matrix(0.05,0,0,0.05,0,0)" xlink:href="#J"/><use transform="matrix(0.05,0,0,0.05,5,0)" xlink:href="#G"/><use transform="matrix(0.05,0,0,0.05,15,0)" xlink:href="#O"/><use transform="matrix(0.05,0,0,0.05,18.95,0)" xlink:href="#G"/><use transform="matrix(0.05,0,0,0.05,28.950000000000003,0)" xlink:href="#V"/><use transform="matrix(0.05,0,0,0.05,33.95,0)" xlink:href="#E"/><use transform="matrix(0.05,0,0,0.05,43.95,0)" xlink:href="#D"/><use transform="matrix(0.05,0,0,0.05,53.95,0)" xlink:href="#G"/><use transform="matrix(0.05,0,0,0.05,63.95,0)" xlink:href="#H"/><use transform="matrix(0.05,0,0,0.05,68.95,0)" xlink:href="#I"/><use transform="matrix(0.05,0,0,0.05,80.95,0)" xlink:href="#J"/><use transform="matrix(0.05,0,0,0.05,85.95,0)" xlink:href="#K"/><use transform="matrix(0.05,0,0,0.05,91.9,0)" xlink:href="#L"/><use transform="matrix(0.05,0,0,0.05,95.85000000000001,0)" xlink:href="#D"/><use transform="matrix(0.05,0,0,0.05,105.85000000000001,0)" xlink:href="#M"/></g><path fill="#333" d="M135-194c52 0 70 43 70 98 0 56-19 99-73 100-30 1-46-15-58-35L72 0H24l1-261h50v104c11-23 29-37 60-37zM114-30c31 0 40-27 40-66 0-37-7-63-39-63s-41 28-41 65c0 36 8 64 40 64" id="W"/><path fill="#333" d="M25 0v-261h50V0H25" id="X"/><path fill="#333" d="M25-224v-37h50v37H25zM25 0v-190h50V0H25" id="Y"/><path fill="#333" d="M190-63c-7 42-38 67-86 67-59 0-84-38-90-98-12-110 154-137 174-36l-49 2c-2-19-15-32-35-32-30 0-35 28-38 64-6 74 65 87 74 30" id="Z"/><g id="h"><use transform="matrix(0.05,0,0,0.05,0,0)" xlink:href="#R"/><use transform="matrix(0.05,0,0,0.05,12,0)" xlink:href="#z"/><use transform="matrix(0.05,0,0,0.05,22.950000000000003,0)" xlink:href="#W"/><use transform="matrix(0.05,0,0,0.05,33.900000000000006,0)" xlink:href="#X"/><use transform="matrix(0.05,0,0,0.05,38.900000000000006,0)" xlink:href="#Y"/><use transform="matrix(0.05,0,0,0.05,43.900000000000006,0)" xlink:href="#Z"/><use transform="matrix(0.05,0,0,0.05,53.900000000000006,0)" xlink:href="#U"/><use transform="matrix(0.05,0,0,0.05,63.900000000000006,0)" xlink:href="#Z"/><use transform="matrix(0.05,0,0,0.05,73.9,0)" xlink:href="#U"/><use transform="matrix(0.05,0,0,0.05,83.9,0)" xlink:href="#B"/></g><g id="i"><use transform="matrix(0.05,0,0,0.05,0,0)" xlink:href="#L"/><use transform="matrix(0.05,0,0,0.05,3.95,0)" xlink:href="#Q"/><use transform="matrix(0.05,0,0,0.05,13.949999999999998,0)" xlink:href="#H"/><use transform="matrix(0.05,0,0,0.05,18.95,0)" xlink:href="#I"/><use transform="matrix(0.05,0,0,0.05,30.950000000000003,0)" xlink:href="#J"/><use transform="matrix(0.05,0,0,0.05,35.95,0)" xlink:href="#K"/><use transform="matrix(0.05,0,0,0.05,41.900000000000006,0)" xlink:href="#L"/><use transform="matrix(0.05,0,0,0.05,45.85000000000001,0)" xlink:href="#D"/><use transform="matrix(0.05,0,0,0.05,55.85,0)" xlink:href="#M"/></g><path fill="#333" d="M84 4C-5 8 30-112 23-190h32v120c0 31 7 50 39 49 72-2 45-101 50-169h31l1 190h-30c-1-10 1-25-2-33-11 22-28 36-60 37" id="aa"/><g id="j"><use transform="matrix(0.05,0,0,0.05,0,0)" xlink:href="#J"/><use transform="matrix(0.05,0,0,0.05,5,0)" xlink:href="#L"/><use transform="matrix(0.05,0,0,0.05,8.95,0)" xlink:href="#J"/><use transform="matrix(0.05,0,0,0.05,13.949999999999998,0)" xlink:href="#aa"/><use transform="matrix(0.05,0,0,0.05,23.95,0)" xlink:href="#O"/><use transform="matrix(0.05,0,0,0.05,27.899999999999995,0)" xlink:href="#E"/><use transform="matrix(0.05,0,0,0.05,37.9,0)" xlink:href="#H"/><use transform="matrix(0.05,0,0,0.05,42.9,0)" xlink:href="#I"/><use transform="matrix(0.05,0,0,0.05,54.900000000000006,0)" xlink:href="#J"/><use transform="matrix(0.05,0,0,0.05,59.900000000000006,0)" xlink:href="#K"/><use transform="matrix(0.05,0,0,0.05,65.85,0)" xlink:href="#L"/><use transform="matrix(0.05,0,0,0.05,69.8,0)" xlink:href="#D"/><use transform="matrix(0.05,0,0,0.05,79.8,0)" xlink:href="#M"/></g><path fill="#333" d="M63-220v92h138v28H63V0H30v-248h175v28H63" id="ab"/><g id="k"><use transform="matrix(0.05,0,0,0.05,0,0)" xlink:href="#D"/><use transform="matrix(0.05,0,0,0.05,10,0)" xlink:href="#E"/><use transform="matrix(0.05,0,0,0.05,20,0)" xlink:href="#J"/><use transform="matrix(0.05,0,0,0.05,25,0)" xlink:href="#N"/><use transform="matrix(0.05,0,0,0.05,35,0)" xlink:href="#H"/><use transform="matrix(0.05,0,0,0.05,40,0)" xlink:href="#ab"/><use transform="matrix(0.05,0,0,0.05,50.95,0)" xlink:href="#O"/><use transform="matrix(0.05,0,0,0.05,54.900000000000006,0)" xlink:href="#E"/><use transform="matrix(0.05,0,0,0.05,64.9,0)" xlink:href="#N"/><use transform="matrix(0.05,0,0,0.05,74.9,0)" xlink:href="#J"/></g><path fill="#333" d="M141 0L90-78 38 0H4l68-98-65-92h35l48 74 47-74h35l-64 92 68 98h-35" id="ac"/><g id="l"><use transform="matrix(0.05,0,0,0.05,0,0)" xlink:href="#J"/><use transform="matrix(0.05,0,0,0.05,5,0)" xlink:href="#G"/><use transform="matrix(0.05,0,0,0.05,15,0)" xlink:href="#ac"/><use transform="matrix(0.05,0,0,0.05,24,0)" xlink:href="#J"/><use transform="matrix(0.05,0,0,0.05,29,0)" xlink:href="#E"/><use transform="matrix(0.05,0,0,0.05,39,0)" xlink:href="#H"/><use transform="matrix(0.05,0,0,0.05,44,0)" xlink:href="#I"/><use transform="matrix(0.05,0,0,0.05,56,0)" xlink:href="#J"/><use transform="matrix(0.05,0,0,0.05,61,0)" xlink:href="#K"/><use transform="matrix(0.05,0,0,0.05,66.95,0)" xlink:href="#L"/><use transform="matrix(0.05,0,0,0.05,70.9,0)" xlink:href="#D"/><use transform="matrix(0.05,0,0,0.05,80.9,0)" xlink:href="#M"/></g><path fill="#333" d="M96-169c-40 0-48 33-48 73s9 75 48 75c24 0 41-14 43-38l32 2c-6 37-31 61-74 61-59 0-76-41-82-99-10-93 101-131 147-64 4 7 5 14 7 22l-32 3c-4-21-16-35-41-35" id="ad"/><path fill="#333" d="M33 0v-248h34V0H33" id="ae"/><g id="m"><use transform="matrix(0.05,0,0,0.05,0,0)" xlink:href="#Q"/><use transform="matrix(0.05,0,0,0.05,10,0)" xlink:href="#G"/><use transform="matrix(0.05,0,0,0.05,20,0)" xlink:href="#D"/><use transform="matrix(0.05,0,0,0.05,30,0)" xlink:href="#aa"/><use transform="matrix(0.05,0,0,0.05,40,0)" xlink:href="#D"/><use transform="matrix(0.05,0,0,0.05,50,0)" xlink:href="#ad"/><use transform="matrix(0.05,0,0,0.05,59,0)" xlink:href="#L"/><use transform="matrix(0.05,0,0,0.05,62.95,0)" xlink:href="#N"/><use transform="matrix(0.05,0,0,0.05,72.95,0)" xlink:href="#H"/><use transform="matrix(0.05,0,0,0.05,77.95,0)" xlink:href="#ae"/><use transform="matrix(0.05,0,0,0.05,82.95,0)" xlink:href="#D"/><use transform="matrix(0.05,0,0,0.05,92.95,0)" xlink:href="#J"/></g><path fill="#333" d="M238-95c0 69-44 99-111 99C63 4 22-25 22-93v-155h51v151c-1 38 19 59 55 60 90 1 49-130 58-211h52v153" id="af"/><g id="n"><use transform="matrix(0.05,0,0,0.05,0,0)" xlink:href="#af"/><use transform="matrix(0.05,0,0,0.05,12.950000000000001,0)" xlink:href="#T"/><use transform="matrix(0.05,0,0,0.05,22.950000000000003,0)" xlink:href="#z"/><use transform="matrix(0.05,0,0,0.05,33.900000000000006,0)" xlink:href="#U"/><use transform="matrix(0.05,0,0,0.05,43.900000000000006,0)" xlink:href="#y"/><use transform="matrix(0.05,0,0,0.05,50.900000000000006,0)" xlink:href="#Y"/><use transform="matrix(0.05,0,0,0.05,55.900000000000006,0)" xlink:href="#B"/></g><path fill="#333" d="M199 0l-22-63H83L61 0H9l90-248h61L250 0h-51zm-33-102l-36-108c-10 38-24 72-36 108h72" id="ag"/><path fill="#333" d="M88-194c31-1 46 15 58 34l-1-101h50l1 261h-48c-2-10 0-23-3-31C134-8 116 4 84 4 32 4 16-41 15-95c0-56 19-97 73-99zm17 164c33 0 40-30 41-66 1-37-9-64-41-64s-38 30-39 65c0 43 13 65 39 65" id="ah"/><path fill="#333" d="M220-157c-53 9-28 100-34 157h-49v-107c1-27-5-49-29-50C55-147 81-57 75 0H25l-1-190h47c2 12-1 28 3 38 10-53 101-56 108 0 13-22 24-43 59-42 82 1 51 116 57 194h-49v-107c-1-25-5-48-29-50" id="ai"/><path fill="#333" d="M135-194c87-1 58 113 63 194h-50c-7-57 23-157-34-157-59 0-34 97-39 157H25l-1-190h47c2 12-1 28 3 38 12-26 28-41 61-42" id="aj"/><g id="o"><use transform="matrix(0.05,0,0,0.05,0,0)" xlink:href="#ag"/><use transform="matrix(0.05,0,0,0.05,12.950000000000001,0)" xlink:href="#ah"/><use transform="matrix(0.05,0,0,0.05,23.900000000000002,0)" xlink:href="#ai"/><use transform="matrix(0.05,0,0,0.05,39.900000000000006,0)" xlink:href="#Y"/><use transform="matrix(0.05,0,0,0.05,44.900000000000006,0)" xlink:href="#aj"/></g><path fill="#333" d="M67-125c0 53 21 87 73 88 37 1 54-22 65-47l45 17C233-25 199 4 140 4 58 4 20-42 15-125 8-235 124-281 211-232c18 10 29 29 36 50l-46 12c-8-25-30-41-62-41-52 0-71 34-72 86" id="ak"/><path fill="#333" d="M115-3C79 11 28 4 28-45v-112H4v-33h27l15-45h31v45h36v33H77v99c-1 23 16 31 38 25v30" id="al"/><g id="p"><use transform="matrix(0.05,0,0,0.05,0,0)" xlink:href="#ak"/><use transform="matrix(0.05,0,0,0.05,12.950000000000001,0)" xlink:href="#B"/><use transform="matrix(0.05,0,0,0.05,23.900000000000002,0)" xlink:href="#aj"/><use transform="matrix(0.05,0,0,0.05,34.85,0)" xlink:href="#al"/><use transform="matrix(0.05,0,0,0.05,40.800000000000004,0)" xlink:href="#y"/><use transform="matrix(0.05,0,0,0.05,47.800000000000004,0)" xlink:href="#Y"/><use transform="matrix(0.05,0,0,0.05,52.800000000000004,0)" xlink:href="#W"/><use transform="matrix(0.05,0,0,0.05,63.75,0)" xlink:href="#z"/><use transform="matrix(0.05,0,0,0.05,74.7,0)" xlink:href="#Y"/><use transform="matrix(0.05,0,0,0.05,79.7,0)" xlink:href="#Z"/><use transform="matrix(0.05,0,0,0.05,89.7,0)" xlink:href="#U"/><use transform="matrix(0.05,0,0,0.05,99.7,0)" xlink:href="#B"/></g><g id="q"><use transform="matrix(0.05,0,0,0.05,0,0)" xlink:href="#G"/><use transform="matrix(0.05,0,0,0.05,10,0)" xlink:href="#F"/><use transform="matrix(0.05,0,0,0.05,24.950000000000003,0)" xlink:href="#N"/><use transform="matrix(0.05,0,0,0.05,34.95,0)" xlink:href="#L"/><use transform="matrix(0.05,0,0,0.05,38.900000000000006,0)" xlink:href="#O"/><use transform="matrix(0.05,0,0,0.05,42.85000000000001,0)" xlink:href="#H"/><use transform="matrix(0.05,0,0,0.05,47.85000000000001,0)" xlink:href="#I"/><use transform="matrix(0.05,0,0,0.05,59.85,0)" xlink:href="#J"/><use transform="matrix(0.05,0,0,0.05,64.85000000000001,0)" xlink:href="#K"/><use transform="matrix(0.05,0,0,0.05,70.80000000000001,0)" xlink:href="#L"/><use transform="matrix(0.05,0,0,0.05,74.75000000000001,0)" xlink:href="#D"/><use transform="matrix(0.05,0,0,0.05,84.75000000000001,0)" xlink:href="#M"/></g><path fill="#333" d="M101-251c68 0 85 55 85 127S166 4 100 4C33 4 14-52 14-124c0-73 17-127 87-127zm-1 229c47 0 54-49 54-102s-4-102-53-102c-51 0-55 48-55 102 0 53 5 102 54 102" id="am"/><path fill="#333" d="M33 0v-38h34V0H33" id="an"/><path fill="#333" d="M80-196l47-18 7 23-49 13 32 44-20 13-27-46-27 45-21-12 33-44-49-13 8-23 47 19-2-53h23" id="ao"/><g id="r"><use transform="matrix(0.04320987654320988,0,0,0.04320987654320988,0,0)" xlink:href="#am"/><use transform="matrix(0.04320987654320988,0,0,0.04320987654320988,8.641975308641976,0)" xlink:href="#an"/><use transform="matrix(0.04320987654320988,0,0,0.04320987654320988,12.962962962962964,0)" xlink:href="#an"/><use transform="matrix(0.04320987654320988,0,0,0.04320987654320988,17.283950617283953,0)" xlink:href="#ao"/></g><path fill="#333" d="M27 0v-27h64v-190l-56 39v-29l58-41h29v221h61V0H27" id="ap"/><use transform="matrix(0.04320987654320988,0,0,0.04320987654320988,0,0)" xlink:href="#ap" id="s"/><g id="t"><use transform="matrix(0.05,0,0,0.05,0,0)" xlink:href="#ak"/><use transform="matrix(0.05,0,0,0.05,12.950000000000001,0)" xlink:href="#B"/><use transform="matrix(0.05,0,0,0.05,23.900000000000002,0)" xlink:href="#ai"/><use transform="matrix(0.05,0,0,0.05,39.900000000000006,0)" xlink:href="#S"/><use transform="matrix(0.05,0,0,0.05,49.900000000000006,0)" xlink:href="#aj"/><use transform="matrix(0.05,0,0,0.05,60.85,0)" xlink:href="#al"/><use transform="matrix(0.05,0,0,0.05,66.80000000000001,0)" xlink:href="#U"/><use transform="matrix(0.05,0,0,0.05,76.80000000000001,0)" xlink:href="#y"/><use transform="matrix(0.05,0,0,0.05,83.80000000000001,0)" xlink:href="#Y"/><use transform="matrix(0.05,0,0,0.05,88.80000000000001,0)" xlink:href="#B"/></g><g id="u"><use transform="matrix(0.05,0,0,0.05,0,0)" xlink:href="#ad"/><use transform="matrix(0.05,0,0,0.05,9,0)" xlink:href="#E"/><use transform="matrix(0.05,0,0,0.05,19,0)" xlink:href="#D"/><use transform="matrix(0.05,0,0,0.05,29,0)" xlink:href="#J"/><use transform="matrix(0.05,0,0,0.05,34,0)" xlink:href="#G"/><use transform="matrix(0.05,0,0,0.05,44,0)" xlink:href="#aa"/><use transform="matrix(0.05,0,0,0.05,54,0)" xlink:href="#Q"/><use transform="matrix(0.05,0,0,0.05,64,0)" xlink:href="#E"/><use transform="matrix(0.05,0,0,0.05,74,0)" xlink:href="#H"/><use transform="matrix(0.05,0,0,0.05,79,0)" xlink:href="#I"/><use transform="matrix(0.05,0,0,0.05,91,0)" xlink:href="#J"/><use transform="matrix(0.05,0,0,0.05,96,0)" xlink:href="#K"/><use transform="matrix(0.05,0,0,0.05,101.95,0)" xlink:href="#L"/><use transform="matrix(0.05,0,0,0.05,105.9,0)" xlink:href="#D"/><use transform="matrix(0.05,0,0,0.05,115.9,0)" xlink:href="#M"/></g><path fill="#333" d="M128 0H69L1-190h53L99-40l48-150h52" id="aq"/><g id="v"><use transform="matrix(0.05,0,0,0.05,0,0)" xlink:href="#ag"/><use transform="matrix(0.05,0,0,0.05,12.3,0)" xlink:href="#aq"/><use transform="matrix(0.05,0,0,0.05,22.3,0)" xlink:href="#U"/><use transform="matrix(0.05,0,0,0.05,32.3,0)" xlink:href="#X"/><use transform="matrix(0.05,0,0,0.05,37.3,0)" xlink:href="#Y"/><use transform="matrix(0.05,0,0,0.05,42.3,0)" xlink:href="#U"/><use transform="matrix(0.05,0,0,0.05,52.29999999999999,0)" xlink:href="#Z"/><use transform="matrix(0.05,0,0,0.05,62.29999999999999,0)" xlink:href="#U"/><use transform="matrix(0.05,0,0,0.05,72.3,0)" xlink:href="#B"/></g><path fill="#333" d="M108 0H70L1-190h34L89-25l56-165h34" id="ar"/><g id="w"><use transform="matrix(0.05,0,0,0.05,0,0)" xlink:href="#N"/><use transform="matrix(0.05,0,0,0.05,10,0)" xlink:href="#ar"/><use transform="matrix(0.05,0,0,0.05,19,0)" xlink:href="#N"/><use transform="matrix(0.05,0,0,0.05,29,0)" xlink:href="#O"/><use transform="matrix(0.05,0,0,0.05,32.95,0)" xlink:href="#L"/><use transform="matrix(0.05,0,0,0.05,36.900000000000006,0)" xlink:href="#N"/><use transform="matrix(0.05,0,0,0.05,46.900000000000006,0)" xlink:href="#ad"/><use transform="matrix(0.05,0,0,0.05,55.900000000000006,0)" xlink:href="#N"/><use transform="matrix(0.05,0,0,0.05,65.9,0)" xlink:href="#E"/><use transform="matrix(0.05,0,0,0.05,75.9,0)" xlink:href="#H"/><use transform="matrix(0.05,0,0,0.05,80.9,0)" xlink:href="#ab"/><use transform="matrix(0.05,0,0,0.05,91.85000000000001,0)" xlink:href="#O"/><use transform="matrix(0.05,0,0,0.05,95.80000000000001,0)" xlink:href="#E"/><use transform="matrix(0.05,0,0,0.05,105.80000000000001,0)" xlink:href="#N"/><use transform="matrix(0.05,0,0,0.05,115.80000000000001,0)" xlink:href="#J"/></g></defs></g></svg>